<?xml version="1.0" standalone="no"?>
<!DOCTYPE svg PUBLIC "-//W3C//DTD SVG 20010904//EN"
 "http://www.w3.org/TR/2001/REC-SVG-20010904/DTD/svg10.dtd">
<svg version="1.0" xmlns="http://www.w3.org/2000/svg"
 width="297.000000pt" height="297.000000pt" viewBox="0 0 297.000000 297.000000"
 preserveAspectRatio="xMidYMid meet">
<metadata>
Created by potrace 1.11, written by Peter Selinger 2001-2013
</metadata>
<g transform="translate(0.000000,297.000000) scale(0.100000,-0.100000)"
fill="#000000" stroke="none">
<path d="M410 2959 c-198 -33 -370 -210 -400 -414 -7 -46 -10 -420 -8 -1105
l3 -1035 23 -64 c62 -172 194 -289 367 -326 101 -21 2075 -22 2176 -1 194 42
343 191 385 384 11 55 14 246 14 1087 0 1111 0 1098 -57 1215 -61 125 -216
236 -363 260 -81 12 -2061 12 -2140 -1z m1925 -309 c4 -6 11 -8 16 -4 18 11
120 -45 174 -97 35 -33 67 -77 88 -118 l32 -66 0 -880 0 -880 -32 -60 c-39
-74 -120 -154 -193 -192 l-55 -28 -880 0 -880 0 -66 32 c-80 40 -159 120 -197
200 l-27 58 0 875 0 875 27 57 c27 58 89 133 141 170 17 12 55 32 86 44 l56
24 852 0 c566 0 854 -3 858 -10z"/>
<path d="M1553 1957 c-62 -32 -101 -57 -100 -66 1 -8 18 -20 37 -26 23 -8 38
-20 42 -36 9 -27 66 -563 75 -697 7 -109 14 -120 58 -86 30 23 37 24 72 15 85
-24 231 -8 311 33 135 70 202 229 159 377 -34 115 -122 179 -248 179 -80 0
-131 -18 -194 -65 l-34 -27 -5 24 c-5 20 -46 401 -46 421 0 14 -26 5 -127 -46z
m383 -437 c72 -35 114 -119 114 -229 0 -80 -22 -126 -71 -153 -58 -31 -161
-18 -197 25 -11 13 -32 155 -44 292 -3 38 -1 41 42 63 55 27 101 28 156 2z"/>
<path d="M1100 1955 c-8 -2 -113 -14 -232 -26 -216 -22 -218 -22 -218 -46 0
-21 4 -23 50 -23 41 0 52 -4 65 -23 10 -16 27 -141 55 -410 38 -360 40 -390
26 -413 -11 -16 -30 -26 -56 -30 -34 -6 -40 -10 -40 -31 0 -24 1 -25 58 -19
434 47 503 57 554 76 134 50 198 132 198 254 0 83 -17 126 -69 176 -49 48 -97
68 -187 77 l-53 6 35 17 c122 63 171 155 140 264 -19 64 -71 115 -137 135 -42
13 -162 23 -189 16z m60 -83 c42 -21 76 -78 85 -143 17 -122 -50 -195 -197
-213 -56 -7 -49 -25 -74 208 -13 123 -13 150 -2 157 25 16 151 10 188 -9z m67
-423 c41 -13 99 -77 112 -126 25 -89 4 -190 -50 -240 -37 -33 -93 -53 -151
-53 -61 0 -73 6 -86 41 -8 20 -29 190 -45 359 -2 23 2 26 48 31 57 7 125 3
172 -12z"/>
</g>
</svg>
